<?xml version="1.0" standalone="no"?><!DOCTYPE svg PUBLIC "-//W3C//DTD SVG 1.1//EN" "http://www.w3.org/Graphics/SVG/1.1/DTD/svg11.dtd"><svg class="icon" width="200px" height="190.51px" viewBox="0 0 1075 1024" version="1.1" xmlns="http://www.w3.org/2000/svg"><path fill="#ffffff" d="M59.733333 981.333333l-29.866666-17.066666c-8.533333-4.266667-12.8-12.8-21.333334-29.866667v-4.266667L4.266667 896v-59.733333c0-81.066667 12.8-153.6 38.4-226.133334 25.6-68.266667 55.466667-132.266667 106.666666-187.733333 46.933333-51.2 102.4-98.133333 166.4-128s136.533333-42.666667 221.866667-42.666667V128c4.266667-42.666667 25.6-64 42.666667-76.8 21.333333-12.8 51.2-21.333333 102.4 17.066667l46.933333 42.666666L810.666667 174.933333c55.466667 46.933333 119.466667 93.866667 174.933333 140.8 4.266667 0 4.266667 4.266667 8.533333 8.533334v-4.266667l42.666667 46.933333c21.333333 21.333333 29.866667 42.666667 29.866667 64 0 25.6-8.533333 46.933333-29.866667 64-12.8 12.8-34.133333 25.6-46.933333 42.666667-17.066667 12.8-38.4 29.866667-55.466667 42.666667-12.8 8.533333-25.6 21.333333-38.4 29.866666-29.866667 21.333333-59.733333 46.933333-93.866667 68.266667-29.866667 21.333333-51.2 42.666667-76.8 55.466667-25.6 17.066667-42.666667 29.866667-46.933333 34.133333-38.4 25.6-68.266667 29.866667-93.866667 25.6-25.6-8.533333-42.666667-25.6-46.933333-46.933333V597.333333c-55.466667 0-115.2 8.533333-157.866667 21.333334-46.933333 12.8-93.866667 38.4-132.266666 64-42.666667 34.133333-72.533333 68.266667-98.133334 110.933333-34.133333 46.933333-55.466667 102.4-76.8 153.6-4.266667 4.266667-12.8 34.133333-12.8 34.133333z m123.733334-524.8c-42.666667 46.933333-76.8 106.666667-98.133334 170.666667-25.6 64-34.133333 132.266667-34.133333 213.333333v12.8c12.8-29.866667 34.133333-55.466667 46.933333-85.333333 34.133333-46.933333 72.533333-89.6 115.2-123.733333 42.666667-34.133333 93.866667-55.466667 145.066667-72.533334s119.466667-25.6 192-25.6h34.133333v183.466667c0 4.266667 4.266667 8.533333 12.8 8.533333 0 0 17.066667 4.266667 46.933334-17.066666 8.533333-4.266667 25.6-17.066667 46.933333-34.133334 25.6-17.066667 51.2-38.4 76.8-55.466666 34.133333-25.6 64-46.933333 93.866667-68.266667 12.8-8.533333 25.6-21.333333 38.4-29.866667 21.333333-12.8 38.4-29.866667 55.466666-42.666666 21.333333-12.8 38.4-25.6 46.933334-38.4 4.266667-4.266667 8.533333-12.8 8.533333-21.333334s4.266667-17.066667-8.533333-29.866666c-12.8-17.066667-34.133333-34.133333-46.933334-42.666667-55.466667-46.933333-115.2-93.866667-174.933333-140.8l-81.066667-64-46.933333-42.666667c-12.8-8.533333-34.133333-21.333333-42.666667-12.8-8.533333 4.266667-17.066667 12.8-21.333333 38.4v170.666667h-46.933333c-72.533333 0-140.8 12.8-200.533334 42.666667-64 21.333333-115.2 55.466667-157.866666 106.666666z" /></svg>