<?xml version="1.0" standalone="no"?><!DOCTYPE svg PUBLIC "-//W3C//DTD SVG 1.1//EN" "http://www.w3.org/Graphics/SVG/1.1/DTD/svg11.dtd">
<svg
        class="icon" viewBox="0 0 1369 1024" version="1.1" xmlns="http://www.w3.org/2000/svg"
        data-spm-anchor-id="a313x.search_index.0.i3.608b3a81Uq12kF"
        width="267.3828125" height="200"><path d="M207.719839 103.296514C310.942329 26.693912 427.390458-4.873253 557.134137 0.608643c110.513863 4.630618 244.879936 69.973333 365.892883 163.523341 121.01706 93.55412 318.636723 351.548659 371.395341 423.569992 52.783293 72.05012 88.713767 137.610795 69.24543 193.046618-16.478586 46.931277-83.507406 67.14808-126.268658 78.650603-42.814715 11.436723-401.383325 117.17192-473.186699 135.139213-71.869173 17.946731-250.435855 29.009221-336.776739 26.109943-86.344996-2.928064-112.570088-14.574522-161.664514-29.181943-101.100466-30.074345-176.971052-83.778827-219.94204-170.975101C9.088514 745.977831-4.573044 666.866635 1.315984 593.33192c4.967839-62.402313 30.678876-89.359422 56.953317-105.369189 40.824289-24.867984 231.164916-35.305382 360.238265 1.357108 79.641703 22.655486 161.722088 54.913542 229.071679 80.151647 127.477719 47.786667 204.38053 66.535325 242.108145 38.899663 55.049253-40.326683-9.141976-73.995309-22.606137-82.158522-53.26445-32.315631-135.904129-41.860627-245.653076-52.627021-73.189269-7.176225-165.65359-18.674635-277.48755-34.519903-187.392-19.904257-268.230426-32.11412-293.645366-53.955342-25.394378-21.849446-15.314763-58.783357-6.51412-84.017349C64.335165 242.47004 117.77645 170.049799 207.715727 103.296514z"
                                               fill="#a37757"
                                               class="selected"></path></svg>